#define bat_full_01_width 24
#define bat_full_01_height 24
static unsigned char bat_full_01_bits[] = {
   0xff, 0x81, 0xff, 0xff, 0x81, 0xff, 0xff, 0x81, 0xff, 0x07, 0x00, 0xe0,
   0x07, 0x00, 0xe0, 0x07, 0x00, 0xe0, 0xc7, 0xff, 0xe3, 0xc7, 0xff, 0xe3,
   0xc7, 0xff, 0xe3, 0xc7, 0x81, 0xe3, 0xc7, 0x81, 0xe3, 0xc7, 0x81, 0xe3,
   0xc7, 0x81, 0xe3, 0xc7, 0x81, 0xe3, 0xc7, 0x81, 0xe3, 0xc7, 0x81, 0xe3,
   0xc7, 0x81, 0xe3, 0xc7, 0x81, 0xe3, 0xc7, 0xff, 0xe3, 0xc7, 0xff, 0xe3,
   0xc7, 0xff, 0xe3, 0x07, 0x00, 0xe0, 0x07, 0x00, 0xe0, 0x07, 0x00, 0xe0 };
