#define battery_width 24
#define battery_height 24
static unsigned char battery_bits[] = {
   0x00, 0x00, 0x00, 0x00, 0x00, 0x00, 0x00, 0x00, 0x00, 0x00, 0x00, 0x00,
   0x00, 0x00, 0x00, 0x00, 0x00, 0x00, 0xf8, 0xff, 0x0f, 0xf8, 0xff, 0x0f,
   0xf8, 0x3f, 0x0c, 0xf8, 0x3f, 0x7c, 0xf8, 0x3f, 0x7c, 0xf8, 0x3f, 0x7c,
   0xf8, 0x3f, 0x7c, 0xf8, 0x3f, 0x7c, 0xf8, 0x3f, 0x0c, 0xf8, 0xff, 0x0f,
   0xf8, 0xff, 0x0f, 0x00, 0x00, 0x00, 0x00, 0x00, 0x00, 0x00, 0x00, 0x00,
   0x00, 0x00, 0x00, 0x00, 0x00, 0x00, 0x00, 0x00, 0x00, 0x00, 0x00, 0x00 };
