#define clock24_width 24
#define clock24_height 24
static unsigned char clock24_bits[] = {
   0x00, 0xff, 0x00, 0xc0, 0xff, 0x03, 0xf0, 0xff, 0x0f, 0xf8, 0x9f, 0x1f,
   0xfc, 0x9f, 0x3f, 0xfc, 0xcf, 0x3f, 0xfe, 0xcf, 0x7f, 0xfe, 0xcf, 0x7f,
   0xff, 0xe7, 0xff, 0xff, 0xe7, 0xff, 0xff, 0xe3, 0xff, 0xff, 0xf3, 0xff,
   0xff, 0x03, 0xf8, 0xff, 0x03, 0xf8, 0xff, 0xff, 0xff, 0xff, 0xff, 0xff,
   0xfe, 0xff, 0x7f, 0xfe, 0xff, 0x7f, 0xfc, 0xff, 0x3f, 0xfc, 0xff, 0x3f,
   0xf8, 0xff, 0x1f, 0xf0, 0xff, 0x0f, 0xc0, 0xff, 0x03, 0x00, 0xff, 0x00 };
