#define clock_width 8
#define clock_height 8
static unsigned char clock_bits[] = {
   0xc3, 0xa1, 0x10, 0x08, 0x78, 0x00, 0x81, 0xc3 };
