#define clouds_width 24
#define clouds_height 24
static unsigned char clouds_bits[] = {
   0x00, 0x00, 0x00, 0x00, 0x00, 0x00, 0x00, 0x00, 0x00, 0x00, 0x00, 0x7e,
   0xe0, 0xe3, 0xff, 0xfc, 0x8f, 0xff, 0xfc, 0x3f, 0xfe, 0xfe, 0xff, 0xfc,
   0xff, 0xff, 0xf8, 0xff, 0xff, 0xf9, 0xff, 0xff, 0xf9, 0xff, 0xff, 0xf9,
   0xff, 0xff, 0xf9, 0xff, 0xff, 0xf8, 0xfe, 0x7f, 0xfc, 0x08, 0x00, 0x00,
   0x08, 0x08, 0x00, 0x48, 0x08, 0x00, 0x40, 0x48, 0x00, 0x40, 0x40, 0x00,
   0x00, 0x42, 0x00, 0x10, 0x02, 0x00, 0x10, 0x12, 0x00, 0x10, 0x10, 0x00 };
