#define mem_width 24
#define mem_height 24
static unsigned char mem_bits[] = {
   0x00, 0x00, 0x00, 0x00, 0x00, 0x00, 0x00, 0x7f, 0x00, 0xf0, 0xff, 0x07,
   0xf0, 0xff, 0x07, 0x00, 0x7f, 0x00, 0x00, 0x7f, 0x00, 0x00, 0x7f, 0x00,
   0xf0, 0xff, 0x07, 0xf0, 0xff, 0x07, 0x00, 0x7f, 0x00, 0x00, 0x7f, 0x00,
   0x00, 0x7f, 0x00, 0xf0, 0xff, 0x07, 0xf0, 0xff, 0x07, 0x00, 0x7f, 0x00,
   0x00, 0x7f, 0x00, 0x00, 0x7f, 0x00, 0xf0, 0xff, 0x07, 0xf0, 0xff, 0x07,
   0x00, 0x7f, 0x00, 0x00, 0x00, 0x00, 0x00, 0x00, 0x00, 0x00, 0x00, 0x00 };
