#define spkr_01_width 16
#define spkr_01_height 16
static unsigned char spkr_01_bits[] = {
   0xc0, 0x00, 0xe0, 0x00, 0xf0, 0x30, 0xf8, 0x70, 0xff, 0xe0, 0xff, 0xc0,
   0xff, 0xcc, 0xff, 0xcc, 0xff, 0xcc, 0xff, 0xcc, 0xff, 0xc0, 0xff, 0xe0,
   0xf8, 0x70, 0xf0, 0x30, 0xe0, 0x00, 0xc0, 0x00 };
