#define wifi_02_width 24
#define wifi_02_height 24
static unsigned char wifi_02_bits[] = {
   0x00, 0x00, 0x06, 0x00, 0x00, 0x0c, 0x00, 0x00, 0x18, 0x00, 0x30, 0x30,
   0x00, 0x30, 0x20, 0x00, 0xe0, 0x60, 0x00, 0xc0, 0x60, 0x80, 0x81, 0xc1,
   0x80, 0x07, 0xc3, 0x07, 0x06, 0xc3, 0x07, 0x0c, 0xc3, 0x07, 0x0c, 0xc3,
   0x07, 0x0c, 0xc3, 0x07, 0x0c, 0xc3, 0x07, 0x06, 0xc3, 0x80, 0x07, 0xc3,
   0x80, 0x81, 0xc1, 0x00, 0xc0, 0x60, 0x00, 0xe0, 0x60, 0x00, 0x30, 0x20,
   0x00, 0x30, 0x30, 0x00, 0x00, 0x18, 0x00, 0x00, 0x0c, 0x00, 0x00, 0x06 };
